<mxfile host="app.diagrams.net" modified="2021-02-04T16:52:42.028Z" agent="5.0 (Windows NT 10.0; Win64; x64) AppleWebKit/537.36 (KHTML, like Gecko) Chrome/87.0.4280.141 Safari/537.36" etag="AjfoTHgK7XkFoS7Nafk_" version="14.2.9" type="github">
  <diagram id="F63qxxFQfJSW2AErVCK4" name="Page-1">
    <mxGraphModel dx="1422" dy="1862" grid="1" gridSize="10" guides="1" tooltips="1" connect="1" arrows="1" fold="1" page="1" pageScale="1" pageWidth="850" pageHeight="1100" math="0" shadow="0">
      <root>
        <mxCell id="0" />
        <mxCell id="1" parent="0" />
        <mxCell id="bY4RWsVSH2ueUhnP1kT4-61" value="" style="rounded=0;whiteSpace=wrap;html=1;dashed=1;strokeWidth=3;" parent="1" vertex="1">
          <mxGeometry x="67.5" y="-130" width="1382.5" height="640" as="geometry" />
        </mxCell>
        <mxCell id="bY4RWsVSH2ueUhnP1kT4-73" value="" style="ellipse;whiteSpace=wrap;html=1;strokeWidth=1;" parent="1" vertex="1">
          <mxGeometry x="410" y="300" width="550" height="190" as="geometry" />
        </mxCell>
        <mxCell id="bY4RWsVSH2ueUhnP1kT4-36" style="edgeStyle=orthogonalEdgeStyle;curved=1;rounded=0;orthogonalLoop=1;jettySize=auto;html=1;exitX=1;exitY=0.5;exitDx=0;exitDy=0;entryX=0;entryY=0.5;entryDx=0;entryDy=0;dashed=1;" parent="1" source="bY4RWsVSH2ueUhnP1kT4-34" target="bY4RWsVSH2ueUhnP1kT4-3" edge="1">
          <mxGeometry relative="1" as="geometry" />
        </mxCell>
        <mxCell id="bY4RWsVSH2ueUhnP1kT4-82" style="edgeStyle=orthogonalEdgeStyle;curved=1;rounded=0;orthogonalLoop=1;jettySize=auto;html=1;exitX=0.5;exitY=1;exitDx=0;exitDy=0;entryX=0;entryY=0;entryDx=0;entryDy=0;dashed=1;dashPattern=1 2;" parent="1" source="bY4RWsVSH2ueUhnP1kT4-34" target="bY4RWsVSH2ueUhnP1kT4-73" edge="1">
          <mxGeometry relative="1" as="geometry" />
        </mxCell>
        <mxCell id="bY4RWsVSH2ueUhnP1kT4-34" value="" style="rounded=0;whiteSpace=wrap;html=1;" parent="1" vertex="1">
          <mxGeometry x="260" y="86" width="135" height="150" as="geometry" />
        </mxCell>
        <mxCell id="bY4RWsVSH2ueUhnP1kT4-35" style="edgeStyle=orthogonalEdgeStyle;curved=1;rounded=0;orthogonalLoop=1;jettySize=auto;html=1;exitX=1;exitY=0.5;exitDx=0;exitDy=0;entryX=0;entryY=0.5;entryDx=0;entryDy=0;dashed=1;" parent="1" source="bY4RWsVSH2ueUhnP1kT4-1" target="bY4RWsVSH2ueUhnP1kT4-34" edge="1">
          <mxGeometry relative="1" as="geometry" />
        </mxCell>
        <mxCell id="bY4RWsVSH2ueUhnP1kT4-79" style="edgeStyle=orthogonalEdgeStyle;curved=1;rounded=0;orthogonalLoop=1;jettySize=auto;html=1;exitX=0.5;exitY=1;exitDx=0;exitDy=0;entryX=0;entryY=0.5;entryDx=0;entryDy=0;dashed=1;dashPattern=1 2;" parent="1" source="bY4RWsVSH2ueUhnP1kT4-1" target="bY4RWsVSH2ueUhnP1kT4-73" edge="1">
          <mxGeometry relative="1" as="geometry" />
        </mxCell>
        <mxCell id="bY4RWsVSH2ueUhnP1kT4-1" value="&lt;font style=&quot;font-size: 18px&quot;&gt;Fisherman&lt;br&gt;Boat&lt;/font&gt;" style="rounded=0;whiteSpace=wrap;html=1;" parent="1" vertex="1">
          <mxGeometry x="100" y="136" width="100" height="50" as="geometry" />
        </mxCell>
        <mxCell id="bY4RWsVSH2ueUhnP1kT4-2" value="Create FishCatch" style="rounded=0;whiteSpace=wrap;html=1;fillColor=#fff2cc;strokeColor=#d6b656;" parent="1" vertex="1">
          <mxGeometry x="112.5" y="95" width="75" height="40" as="geometry" />
        </mxCell>
        <mxCell id="bY4RWsVSH2ueUhnP1kT4-17" style="edgeStyle=orthogonalEdgeStyle;curved=1;rounded=0;orthogonalLoop=1;jettySize=auto;html=1;exitX=1;exitY=0.5;exitDx=0;exitDy=0;dashed=1;" parent="1" source="bY4RWsVSH2ueUhnP1kT4-3" target="bY4RWsVSH2ueUhnP1kT4-15" edge="1">
          <mxGeometry relative="1" as="geometry" />
        </mxCell>
        <mxCell id="bY4RWsVSH2ueUhnP1kT4-80" style="edgeStyle=orthogonalEdgeStyle;curved=1;rounded=0;orthogonalLoop=1;jettySize=auto;html=1;exitX=0.5;exitY=1;exitDx=0;exitDy=0;entryX=0.276;entryY=0.058;entryDx=0;entryDy=0;entryPerimeter=0;dashed=1;dashPattern=1 2;" parent="1" source="bY4RWsVSH2ueUhnP1kT4-3" target="bY4RWsVSH2ueUhnP1kT4-73" edge="1">
          <mxGeometry relative="1" as="geometry" />
        </mxCell>
        <mxCell id="bY4RWsVSH2ueUhnP1kT4-3" value="&lt;font&gt;&lt;font style=&quot;font-size: 18px&quot;&gt;Port&lt;br&gt;&lt;/font&gt;Quality Control&lt;br&gt;&lt;/font&gt;" style="rounded=0;whiteSpace=wrap;html=1;" parent="1" vertex="1">
          <mxGeometry x="450" y="135" width="90" height="50" as="geometry" />
        </mxCell>
        <mxCell id="bY4RWsVSH2ueUhnP1kT4-9" value="&lt;span style=&quot;font-family: &amp;#34;helvetica&amp;#34;&quot;&gt;&lt;font style=&quot;font-size: 14px&quot;&gt;Online Marketplace&lt;/font&gt;&lt;/span&gt;" style="rounded=0;whiteSpace=wrap;html=1;" parent="1" vertex="1">
          <mxGeometry x="260" y="40" width="135" height="46" as="geometry" />
        </mxCell>
        <mxCell id="bY4RWsVSH2ueUhnP1kT4-19" style="edgeStyle=orthogonalEdgeStyle;curved=1;rounded=0;orthogonalLoop=1;jettySize=auto;html=1;exitX=1;exitY=0.5;exitDx=0;exitDy=0;entryX=0;entryY=0.5;entryDx=0;entryDy=0;dashed=1;" parent="1" source="bY4RWsVSH2ueUhnP1kT4-15" target="bY4RWsVSH2ueUhnP1kT4-18" edge="1">
          <mxGeometry relative="1" as="geometry" />
        </mxCell>
        <mxCell id="bY4RWsVSH2ueUhnP1kT4-77" style="edgeStyle=orthogonalEdgeStyle;curved=1;rounded=0;orthogonalLoop=1;jettySize=auto;html=1;exitX=0.5;exitY=1;exitDx=0;exitDy=0;dashed=1;dashPattern=1 2;entryX=0.529;entryY=0.005;entryDx=0;entryDy=0;entryPerimeter=0;" parent="1" source="bY4RWsVSH2ueUhnP1kT4-15" target="bY4RWsVSH2ueUhnP1kT4-73" edge="1">
          <mxGeometry relative="1" as="geometry">
            <mxPoint x="690" y="300" as="targetPoint" />
          </mxGeometry>
        </mxCell>
        <mxCell id="bY4RWsVSH2ueUhnP1kT4-15" value="&lt;font&gt;&lt;font style=&quot;font-size: 18px&quot;&gt;Packaging&lt;/font&gt;&lt;br&gt;&lt;/font&gt;" style="rounded=0;whiteSpace=wrap;html=1;" parent="1" vertex="1">
          <mxGeometry x="597.5" y="135" width="100" height="50" as="geometry" />
        </mxCell>
        <mxCell id="bY4RWsVSH2ueUhnP1kT4-28" style="edgeStyle=orthogonalEdgeStyle;curved=1;rounded=0;orthogonalLoop=1;jettySize=auto;html=1;exitX=1;exitY=0.25;exitDx=0;exitDy=0;entryX=0;entryY=0.5;entryDx=0;entryDy=0;dashed=1;" parent="1" source="bY4RWsVSH2ueUhnP1kT4-18" target="bY4RWsVSH2ueUhnP1kT4-25" edge="1">
          <mxGeometry relative="1" as="geometry" />
        </mxCell>
        <mxCell id="bY4RWsVSH2ueUhnP1kT4-29" style="edgeStyle=orthogonalEdgeStyle;curved=1;rounded=0;orthogonalLoop=1;jettySize=auto;html=1;exitX=1;exitY=0.5;exitDx=0;exitDy=0;entryX=0;entryY=0.5;entryDx=0;entryDy=0;dashed=1;" parent="1" source="bY4RWsVSH2ueUhnP1kT4-18" target="bY4RWsVSH2ueUhnP1kT4-26" edge="1">
          <mxGeometry relative="1" as="geometry" />
        </mxCell>
        <mxCell id="bY4RWsVSH2ueUhnP1kT4-30" style="edgeStyle=orthogonalEdgeStyle;curved=1;rounded=0;orthogonalLoop=1;jettySize=auto;html=1;exitX=1;exitY=0.75;exitDx=0;exitDy=0;entryX=0;entryY=0.5;entryDx=0;entryDy=0;dashed=1;" parent="1" source="bY4RWsVSH2ueUhnP1kT4-18" target="bY4RWsVSH2ueUhnP1kT4-27" edge="1">
          <mxGeometry relative="1" as="geometry" />
        </mxCell>
        <mxCell id="bY4RWsVSH2ueUhnP1kT4-78" style="edgeStyle=orthogonalEdgeStyle;curved=1;rounded=0;orthogonalLoop=1;jettySize=auto;html=1;exitX=0.5;exitY=1;exitDx=0;exitDy=0;dashed=1;dashPattern=1 2;entryX=1;entryY=0;entryDx=0;entryDy=0;" parent="1" source="bY4RWsVSH2ueUhnP1kT4-18" target="bY4RWsVSH2ueUhnP1kT4-73" edge="1">
          <mxGeometry relative="1" as="geometry">
            <mxPoint x="690" y="300" as="targetPoint" />
          </mxGeometry>
        </mxCell>
        <mxCell id="bY4RWsVSH2ueUhnP1kT4-18" value="&lt;font&gt;&lt;font style=&quot;font-size: 18px&quot;&gt;Logistics&lt;br&gt;and&lt;br&gt;Transportation&lt;/font&gt;&lt;br&gt;&lt;/font&gt;" style="rounded=0;whiteSpace=wrap;html=1;" parent="1" vertex="1">
          <mxGeometry x="742.5" y="118.5" width="170" height="85" as="geometry" />
        </mxCell>
        <mxCell id="bY4RWsVSH2ueUhnP1kT4-45" style="edgeStyle=orthogonalEdgeStyle;curved=1;rounded=0;orthogonalLoop=1;jettySize=auto;html=1;exitX=0.5;exitY=0;exitDx=0;exitDy=0;entryX=0.5;entryY=0;entryDx=0;entryDy=0;" parent="1" source="bY4RWsVSH2ueUhnP1kT4-25" target="bY4RWsVSH2ueUhnP1kT4-9" edge="1">
          <mxGeometry relative="1" as="geometry">
            <Array as="points">
              <mxPoint x="1048" y="-20" />
              <mxPoint x="328" y="-20" />
            </Array>
          </mxGeometry>
        </mxCell>
        <mxCell id="PwdYVLRnmwwsT5jVnx_i-1" style="edgeStyle=orthogonalEdgeStyle;curved=1;rounded=0;orthogonalLoop=1;jettySize=auto;html=1;exitX=1;exitY=0.5;exitDx=0;exitDy=0;entryX=0;entryY=0.25;entryDx=0;entryDy=0;dashed=1;" edge="1" parent="1" source="bY4RWsVSH2ueUhnP1kT4-25" target="bY4RWsVSH2ueUhnP1kT4-37">
          <mxGeometry relative="1" as="geometry" />
        </mxCell>
        <mxCell id="bY4RWsVSH2ueUhnP1kT4-25" value="&lt;font&gt;&lt;font style=&quot;font-size: 18px&quot;&gt;Horeca*&lt;/font&gt;&lt;br&gt;&lt;/font&gt;" style="rounded=0;whiteSpace=wrap;html=1;" parent="1" vertex="1">
          <mxGeometry x="977.5" y="79" width="140" height="26" as="geometry" />
        </mxCell>
        <mxCell id="PwdYVLRnmwwsT5jVnx_i-2" style="edgeStyle=orthogonalEdgeStyle;curved=1;rounded=0;orthogonalLoop=1;jettySize=auto;html=1;exitX=1;exitY=0.5;exitDx=0;exitDy=0;entryX=0;entryY=0.75;entryDx=0;entryDy=0;dashed=1;" edge="1" parent="1" source="bY4RWsVSH2ueUhnP1kT4-26" target="bY4RWsVSH2ueUhnP1kT4-37">
          <mxGeometry relative="1" as="geometry" />
        </mxCell>
        <mxCell id="bY4RWsVSH2ueUhnP1kT4-26" value="&lt;font&gt;&lt;font style=&quot;font-size: 18px&quot;&gt;Point of Sell&lt;/font&gt;&lt;br&gt;&lt;/font&gt;" style="rounded=0;whiteSpace=wrap;html=1;" parent="1" vertex="1">
          <mxGeometry x="977.5" y="145" width="140" height="30" as="geometry" />
        </mxCell>
        <mxCell id="bY4RWsVSH2ueUhnP1kT4-43" style="edgeStyle=orthogonalEdgeStyle;curved=1;rounded=0;orthogonalLoop=1;jettySize=auto;html=1;exitX=0.5;exitY=0;exitDx=0;exitDy=0;entryX=0.5;entryY=1;entryDx=0;entryDy=0;dashed=1;" parent="1" source="bY4RWsVSH2ueUhnP1kT4-27" target="bY4RWsVSH2ueUhnP1kT4-26" edge="1">
          <mxGeometry relative="1" as="geometry" />
        </mxCell>
        <mxCell id="bY4RWsVSH2ueUhnP1kT4-47" style="edgeStyle=orthogonalEdgeStyle;curved=1;rounded=0;orthogonalLoop=1;jettySize=auto;html=1;exitX=1;exitY=0.5;exitDx=0;exitDy=0;entryX=0.5;entryY=0;entryDx=0;entryDy=0;" parent="1" source="bY4RWsVSH2ueUhnP1kT4-27" target="bY4RWsVSH2ueUhnP1kT4-9" edge="1">
          <mxGeometry relative="1" as="geometry">
            <Array as="points">
              <mxPoint x="1350" y="228" />
              <mxPoint x="1350" y="-50" />
              <mxPoint x="328" y="-50" />
            </Array>
          </mxGeometry>
        </mxCell>
        <mxCell id="bY4RWsVSH2ueUhnP1kT4-27" value="&lt;font&gt;&lt;font style=&quot;font-size: 18px&quot;&gt;Retailer&lt;/font&gt;&lt;br&gt;&lt;/font&gt;" style="rounded=0;whiteSpace=wrap;html=1;" parent="1" vertex="1">
          <mxGeometry x="977.5" y="213" width="140" height="30" as="geometry" />
        </mxCell>
        <mxCell id="bY4RWsVSH2ueUhnP1kT4-32" value="Buy" style="ellipse;whiteSpace=wrap;html=1;fillColor=#fff2cc;strokeColor=#d6b656;" parent="1" vertex="1">
          <mxGeometry x="295" y="96" width="60" height="60" as="geometry" />
        </mxCell>
        <mxCell id="bY4RWsVSH2ueUhnP1kT4-33" value="Auction" style="ellipse;whiteSpace=wrap;html=1;" parent="1" vertex="1">
          <mxGeometry x="295" y="166" width="62.5" height="60" as="geometry" />
        </mxCell>
        <mxCell id="bY4RWsVSH2ueUhnP1kT4-37" value="&lt;font&gt;&lt;font style=&quot;font-size: 18px&quot;&gt;End Consumer&lt;/font&gt;&lt;br&gt;&lt;/font&gt;" style="rounded=0;whiteSpace=wrap;html=1;" parent="1" vertex="1">
          <mxGeometry x="1165" y="94" width="110" height="64" as="geometry" />
        </mxCell>
        <mxCell id="bY4RWsVSH2ueUhnP1kT4-53" value="Temperature Tracking" style="rounded=0;whiteSpace=wrap;html=1;fillColor=#fff2cc;strokeColor=#d6b656;" parent="1" vertex="1">
          <mxGeometry x="762.5" y="91" width="130" height="26.5" as="geometry" />
        </mxCell>
        <mxCell id="bY4RWsVSH2ueUhnP1kT4-60" value="&lt;font style=&quot;font-size: 22px&quot;&gt;&lt;b&gt;Supply Chain Workshop Context Diagram&lt;/b&gt;&lt;/font&gt;" style="text;html=1;strokeColor=none;fillColor=none;align=center;verticalAlign=middle;whiteSpace=wrap;rounded=0;" parent="1" vertex="1">
          <mxGeometry x="67.5" y="-120" width="1382.5" height="40" as="geometry" />
        </mxCell>
        <mxCell id="bY4RWsVSH2ueUhnP1kT4-72" style="edgeStyle=orthogonalEdgeStyle;curved=1;rounded=0;orthogonalLoop=1;jettySize=auto;html=1;exitX=1;exitY=0.5;exitDx=0;exitDy=0;entryX=0;entryY=0.5;entryDx=0;entryDy=0;dashed=1;" parent="1" source="bY4RWsVSH2ueUhnP1kT4-69" target="bY4RWsVSH2ueUhnP1kT4-70" edge="1">
          <mxGeometry relative="1" as="geometry" />
        </mxCell>
        <mxCell id="bY4RWsVSH2ueUhnP1kT4-69" value="&lt;span style=&quot;font-size: 18px&quot;&gt;Permissioned&lt;br&gt;Blockchain&lt;/span&gt;" style="rounded=0;whiteSpace=wrap;html=1;" parent="1" vertex="1">
          <mxGeometry x="460" y="360" width="190" height="70" as="geometry" />
        </mxCell>
        <mxCell id="bY4RWsVSH2ueUhnP1kT4-70" value="&lt;span style=&quot;font-size: 18px&quot;&gt;Public&lt;br&gt;Blockchain&lt;/span&gt;" style="rounded=0;whiteSpace=wrap;html=1;fillColor=#fff2cc;strokeColor=#d6b656;" parent="1" vertex="1">
          <mxGeometry x="720" y="360" width="190" height="70" as="geometry" />
        </mxCell>
        <mxCell id="ODv_XdXYpAF3ztCBeRhF-1" value="*Horeca = Hotels, Restaurants and Coffee shops" style="text;html=1;strokeColor=none;fillColor=none;align=center;verticalAlign=middle;whiteSpace=wrap;rounded=0;" parent="1" vertex="1">
          <mxGeometry x="1170" y="480" width="270" height="20" as="geometry" />
        </mxCell>
      </root>
    </mxGraphModel>
  </diagram>
</mxfile>
